<svg xmlns="http://www.w3.org/2000/svg" width="328.914" height="54.159" viewBox="0 0 50.914 54.159">
  <g id="WHITEPAPER" transform="translate(-105.539 -485.932)">
    <g id="wp_ICON" data-name="wp ICON" transform="translate(-214 38.298)">
      <g id="Beetle_Wing_Fonebox_twitter_video" data-name="Beetle Wing Fonebox twitter video" transform="translate(269.539 469.967)">
        <g id="Black_Beetle" data-name="Black Beetle" transform="translate(66.648 0)">
          <path id="Path_7" data-name="Path 7" d="M22.739,54.921h1.775l1.4,1.517h1.131l1.3-1.517H30.29s.927,3.383,0,5.6-3.709,2.99-3.709,2.99h-.666s-2.829-.773-3.613-2.99S22.739,54.921,22.739,54.921Z" transform="translate(-18.408 -40.179)" fill="#637a69" stroke="#637a69" stroke-width="1.5"/>
          <path id="Path_10" data-name="Path 10" d="M37.222,57.5" transform="translate(-24.928 -41.282)" fill="none" stroke="#637a69" stroke-width="1"/>
          <path id="Path_25" data-name="Path 25" d="M0,5" transform="translate(0 17.13)" fill="none" stroke="#637a69" stroke-width="1.5"/>
          <path id="Path_23" data-name="Path 23" d="M7.781,20.249a9.776,9.776,0,0,0,4.374,1.23,10.71,10.71,0,0,0,4.589-1.2" transform="translate(-4.293 -2.244)" fill="none" stroke="#fff" stroke-linecap="round" stroke-width="1"/>
          <path id="Path_24" data-name="Path 24" d="M15.6,22.114l-.035,4.225" transform="translate(-7.754 -2.879)" fill="none" stroke="#fff" stroke-linecap="round" stroke-width="1"/>
          <path id="Path_26" data-name="Path 26" d="M9.723,11.379s.325-2.142,1.331-2.9a4.38,4.38,0,0,1,4.376,0,4.816,4.816,0,0,1,1.5,2.9H14.258l-1.041,1.267L12.07,11.379Z" transform="translate(-5.157 1.954)" fill="#637a69"/>
          <g id="Right_Legs" data-name="Right Legs" transform="translate(10.055 16.236)">
            <path id="Path_111" data-name="Path 111" d="M-52.673,60.718c.061,0,2.079-.058,2.536.376s-.518,4.36-.852,4.975a28.853,28.853,0,0,1-2.329,3.691c-.346.222,1.492-3.238,1.385-3.4s-1.621.927-1.446.416,1.894-1.824,2.091-2.294.553-2.113.218-2.493a9.474,9.474,0,0,0-2.058-1.058Z" transform="translate(53.393 -54.68)" fill="#637a69" stroke="#637a69" stroke-width="1"/>
            <path id="Path_112" data-name="Path 112" d="M-49.558,51.816s1.218-.47,1.385-.109a31.366,31.366,0,0,1-.244,5.048c-.1.167-.183-4-.274-4.469S-49.558,51.816-49.558,51.816Z" transform="translate(52.217 -51.571)" fill="#637a69" stroke="#637a69" stroke-width="0.5"/>
          </g>
          <g id="Left_Legs" data-name="Left Legs" transform="translate(1.667 16.022)">
            <path id="Path_111-2" data-name="Path 111" d="M-50.738,60.718c-.061,0-2.079-.058-2.536.376s.518,4.36.852,4.975a28.853,28.853,0,0,0,2.329,3.691c.346.222-1.492-3.238-1.385-3.4s1.621.927,1.446.416-1.894-1.824-2.091-2.294-.553-2.113-.218-2.493a9.474,9.474,0,0,1,2.058-1.058Z" transform="translate(53.393 -54.68)" fill="#637a69" stroke="#637a69" stroke-width="1"/>
            <path id="Path_112-2" data-name="Path 112" d="M-48.125,51.816s-1.218-.47-1.385-.109a31.366,31.366,0,0,0,.244,5.048c.1.167.183-4,.274-4.469S-48.125,51.816-48.125,51.816Z" transform="translate(49.926 -51.571)" fill="#637a69" stroke="#637a69" stroke-width="0.5"/>
          </g>
          <path id="Path_113" data-name="Path 113" d="M-53.356,38.066s2.541.437,2.909,0a10.9,10.9,0,0,0,.568-4.332c-.2-.636-1.527-1.526-1.518-1.687s1.208.015,1.25-.459-1.664-4.722-1.522-4.613a10.377,10.377,0,0,1,2.572,4.516c.314,2.073.088,7.014-.653,7.644a3.583,3.583,0,0,1-2.739.324C-52.586,39.3-53.356,38.066-53.356,38.066Z" transform="translate(63.431 -26.972)" fill="#637a69" stroke="#637a69" stroke-width="1"/>
          <path id="Path_114" data-name="Path 114" d="M-48.957,38.066s-2.541.437-2.909,0a10.9,10.9,0,0,1-.568-4.332c.2-.636,1.527-1.526,1.518-1.687s-1.208.015-1.25-.459,1.664-4.722,1.522-4.613a10.377,10.377,0,0,0-2.572,4.516c-.314,2.073-.088,7.014.653,7.644a3.583,3.583,0,0,0,2.739.324C-49.726,39.3-48.957,38.066-48.957,38.066Z" transform="translate(54.11 -26.972)" fill="#637a69" stroke="#637a69" stroke-width="1"/>
        </g>
        <g id="Right_Bottom_Wing" data-name="Right Bottom Wing" transform="translate(81.869 8.317)">
          <path id="Path_93" data-name="Path 93" d="M-46.086,64.681c-.227-.1-.252,2.43-.252,2.43a11.934,11.934,0,0,0,2.065,1.535c.245-.048-.555-.434-1.084-1.728S-45.859,64.777-46.086,64.681Z" transform="translate(46.338 -48.108)" fill="#4e6454"/>
          <path id="Path_94" data-name="Path 94" d="M-43.694,64.9a4.625,4.625,0,0,1,1.7.086c.405.225.367.819.833,1.785s1.255,2.177,1.028,2.079a3.229,3.229,0,0,1-2.095-1A9.349,9.349,0,0,1-43.694,64.9Z" transform="translate(45.163 -48.17)" fill="#4e6454"/>
          <path id="Path_95" data-name="Path 95" d="M-37.937,65.018s1.279-.207,1.693.2.436,1.269,1.09,2.377,1.2,1.892,1.009,1.831a2.954,2.954,0,0,1-2.026-1.135A10.562,10.562,0,0,1-37.937,65.018Z" transform="translate(42.602 -48.205)" fill="#4e6454"/>
          <path id="Path_96" data-name="Path 96" d="M-32.947,65.226a5.013,5.013,0,0,1,1.6.208c.384.219.609,1.292,1.34,2.458a20.807,20.807,0,0,1,1.461,2.284A8.588,8.588,0,0,1-31.3,68.218,8.6,8.6,0,0,1-32.947,65.226Z" transform="translate(40.383 -48.294)" fill="#4e6454"/>
          <path id="Path_97" data-name="Path 97" d="M-28.075,65.152a4.223,4.223,0,0,1,1.747.343c.432.332.386,1.246,1.133,2.445s1.976,2.38,1.857,2.352a4.954,4.954,0,0,1-2.7-1.521A13.023,13.023,0,0,1-28.075,65.152Z" transform="translate(38.217 -48.269)" fill="#4e6454"/>
          <path id="Path_98" data-name="Path 98" d="M-22.674,65.52a4.059,4.059,0,0,1,1.675.2c.52.287.467,1.307,1.266,2.627s2.386,2.543,2.131,2.5a4.137,4.137,0,0,1-2.937-1.3A11.761,11.761,0,0,1-22.674,65.52Z" transform="translate(35.815 -48.39)" fill="#4e6454"/>
          <path id="Path_99" data-name="Path 99" d="M-17.176,65.99a4.5,4.5,0,0,1,1.973.257c.468.35.4,1.1,1.2,2.462s2.168,2.911,1.994,2.858a8.813,8.813,0,0,1-3.2-2.077A9.555,9.555,0,0,1-17.176,65.99Z" transform="translate(33.37 -48.55)" fill="#4e6454"/>
          <path id="Path_100" data-name="Path 100" d="M-11.662,66.4s1.3-.252,1.864.171.456,1.223,1.293,2.585,2.326,2.7,2.116,2.641a4.413,4.413,0,0,1-2.8-1.394A15.089,15.089,0,0,1-11.662,66.4Z" transform="translate(30.918 -48.666)" fill="#4e6454"/>
          <path id="Path_101" data-name="Path 101" d="M-6.524,65.964a4.642,4.642,0,0,1,1.965.194c.5.323.5,1.072,1.581,2.574s2.591,3.1,2.418,3.122a4.578,4.578,0,0,1-3.278-1.445A14.243,14.243,0,0,1-6.524,65.964Z" transform="translate(28.633 -48.536)" fill="#4e6454"/>
          <path id="Path_102" data-name="Path 102" d="M-.822,65.652a4.712,4.712,0,0,1,2.237,0C2.039,66,2.549,67.465,3.881,69s3.038,2.871,2.725,2.8a7.837,7.837,0,0,1-4.247-1.556A12.821,12.821,0,0,1-.822,65.652Z" transform="translate(26.097 -48.387)" fill="#4e6454"/>
          <path id="Path_103" data-name="Path 103" d="M5.7,64.921a3.959,3.959,0,0,1,1.9-.235c.655.217,1.659,1.366,3.607,3.166s4.036,3.4,3.79,3.419A7.677,7.677,0,0,1,9.87,69.923,15.682,15.682,0,0,1,5.7,64.921Z" transform="translate(23.196 -48.09)" fill="#4e6454"/>
          <path id="Path_104" data-name="Path 104" d="M12.2,63.9s1.419-.937,2.091-.678,3.963,3.27,6.143,4.749,3.764,1.7,3.379,1.845-1.7,1.479-4.595,0S12.2,63.9,12.2,63.9Z" transform="translate(20.307 -47.599)" fill="#4e6454"/>
          <path id="Path_105" data-name="Path 105" d="M17,61.666a3.5,3.5,0,0,1,2.038-.776c.851.141,5.427,3.155,8.446,4.754s4.436,1.708,4.178,1.808-1.631,1.753-5.268.313S17,61.666,17,61.666Z" transform="translate(18.173 -46.815)" fill="#4e6454"/>
          <path id="Path_106" data-name="Path 106" d="M21.508,59.12a2.8,2.8,0,0,1,1.784-.884,21.528,21.528,0,0,1,5.5,1.679c2.309,1.054,3.385,1.878,5.774,2.739a12.7,12.7,0,0,0,5.353,1c-.188.178-1.746,2.454-6.344,1.208-2.189-.593-4.377-2.071-7.133-3.531A39.95,39.95,0,0,0,21.508,59.12Z" transform="translate(16.167 -45.917)" fill="#4e6454"/>
          <path id="Path_107" data-name="Path 107" d="M25.157,55.851a2.112,2.112,0,0,1,1.464-.941,33.629,33.629,0,0,1,7.19.941c3.365.793,2.965,1.286,6.418,2.079s5.923.677,5.7.913a7.433,7.433,0,0,1-6.047,1.885c-3.839-.329-5.188-2.153-9.07-3.3S25.157,55.851,25.157,55.851Z" transform="translate(14.544 -44.786)" fill="#4e6454"/>
          <path id="Path_108" data-name="Path 108" d="M27.9,52.309s.455-1.545,1.524-1.693a40.713,40.713,0,0,1,7.837.629c2.572.47,3.713,1.179,7.459,1.5s6.388-.894,6.22-.648a6.113,6.113,0,0,1-5.8,3.3c-4.155-.141-5.466-1.663-10.309-2.5A27.169,27.169,0,0,0,27.9,52.309Z" transform="translate(13.324 -43.314)" fill="#4e6454"/>
          <path id="Path_109" data-name="Path 109" d="M30.157,48.421s.79-1.3,1.641-1.437a56.675,56.675,0,0,1,8.748,0c4.418.268,4.679.611,8.313.734a13.044,13.044,0,0,0,5.068-.734A10.871,10.871,0,0,1,47.314,50.1c-3.95.359-5.058-1.165-9.348-1.585A46.035,46.035,0,0,0,30.157,48.421Z" transform="translate(12.321 -42.039)" fill="#4e6454"/>
          <path id="Path_110" data-name="Path 110" d="M32.7,43.294s.351-1.2,1.092-1.548,2.718-.808,6.708-.753,4.689.622,8.944,0,7.4-1.621,7.242-1.388a6.824,6.824,0,0,1-4.333,4.022c-3.421,1.162-6.366-.118-10.566-.334S32.7,43.294,32.7,43.294Z" transform="translate(11.188 -39.572)" fill="#4e6454"/>
        </g>
        <g id="Right_Middle_wings" data-name="Right Middle wings" transform="translate(81.892 10.438)">
          <path id="Path_81" data-name="Path 81" d="M-46.023,55.576c-.289.093-.274,2.963-.274,2.963a5.213,5.213,0,0,0,1.019,1.626c.631.61,1.438.957,1.507.813s-.807-1.474-1.37-2.809S-45.734,55.483-46.023,55.576Z" transform="translate(46.24 -47.12)" fill="none" stroke="#4e6454" stroke-width="0.5"/>
          <path id="Path_82" data-name="Path 82" d="M-44.266,55.441s1.484-.227,1.839.248a20.658,20.658,0,0,1,.972,2.434c.581,1.32,1.588,2.64,1.414,2.784s-1.3-.526-2.325-1.867A17.718,17.718,0,0,1-44.266,55.441Z" transform="translate(45.394 -47.07)" fill="none" stroke="#4e6454" stroke-width="0.5"/>
          <path id="Path_83" data-name="Path 83" d="M-38.875,55.634a4.471,4.471,0,0,1,1.719.092c.373.237.5,1.042,1.1,2.4s2.458,3.308,1.588,2.919a6.361,6.361,0,0,1-2.774-2.183A11.813,11.813,0,0,1-38.875,55.634Z" transform="translate(42.997 -47.139)" fill="none" stroke="#4e6454" stroke-width="0.5"/>
          <path id="Path_84" data-name="Path 84" d="M-33.547,55.3s1.461-.122,1.856.2.46,1.255,1.072,2.641,2.443,3.066,1.713,2.829a4.241,4.241,0,0,1-2.705-1.77A17.686,17.686,0,0,1-33.547,55.3Z" transform="translate(40.627 -47.033)" fill="none" stroke="#4e6454" stroke-width="0.5"/>
          <path id="Path_85" data-name="Path 85" d="M-28.375,55.436a2.678,2.678,0,0,1,1.781.308c.559.493,1.138,2.134,2.019,3.486s1.824,2.114,1.562,2.187a4.939,4.939,0,0,1-3.039-1.866A15.644,15.644,0,0,1-28.375,55.436Z" transform="translate(38.327 -47.075)" fill="none" stroke="#4e6454" stroke-width="0.5"/>
          <path id="Path_86" data-name="Path 86" d="M-23.117,55.65s1.231-.335,1.7.067,1.42,2.419,2.628,3.942,2.537,2.172,2.206,2.149a4.37,4.37,0,0,1-3.311-1.452A21.24,21.24,0,0,1-23.117,55.65Z" transform="translate(35.989 -47.115)" fill="none" stroke="#4e6454" stroke-width="0.5"/>
          <path id="Path_87" data-name="Path 87" d="M-18.2,55.012a3.2,3.2,0,0,1,2,.228A25.283,25.283,0,0,1-13.442,58.3c1.556,1.77,4.715,2.681,4.117,2.789s-3.17.778-5.076-1.113A32.358,32.358,0,0,1-18.2,55.012Z" transform="translate(33.804 -46.92)" fill="none" stroke="#4e6454" stroke-width="0.5"/>
          <path id="Path_88" data-name="Path 88" d="M-13.1,54.594a8.963,8.963,0,0,1,2.364,0,13.245,13.245,0,0,1,4.3,2.929c1.868,1.949,4.745,2.49,4.212,2.8a7.069,7.069,0,0,1-6.343-1.547C-10.9,56.613-13.1,54.594-13.1,54.594Z" transform="translate(31.535 -46.769)" fill="none" stroke="#4e6454" stroke-width="0.5"/>
          <path id="Path_89" data-name="Path 89" d="M-6.891,53.451A4.418,4.418,0,0,1-4,52.871,19.525,19.525,0,0,1,1.57,56.043c2.331,1.917,4.9,1.177,4.254,1.652a5.239,5.239,0,0,1-6.439-.554A23.326,23.326,0,0,0-6.891,53.451Z" transform="translate(28.773 -46.183)" fill="none" stroke="#4e6454" stroke-width="0.5"/>
          <path id="Path_90" data-name="Path 90" d="M-1.25,50.657s1.1-1.269,1.882-1.2a15.964,15.964,0,0,1,6.056,2.2c2.845,1.673,6.085.662,5.836,1.255S11.436,55.677,8.023,55c-1.847-.367-3.723-2.1-5.851-3.207A14.139,14.139,0,0,0-1.25,50.657Z" transform="translate(26.265 -45.053)" fill="none" stroke="#4e6454" stroke-width="0.5"/>
          <path id="Path_91" data-name="Path 91" d="M2.547,47.436A4.512,4.512,0,0,1,3.7,46.4c.541-.264,5.044,1.109,8.393,1.443s5.429-.24,4.935.265-1.33,2.321-4.935,2.227c-1.875-.049-3.433-1.135-5.886-1.966A25.35,25.35,0,0,0,2.547,47.436Z" transform="translate(24.576 -44.005)" fill="none" stroke="#4e6454" stroke-width="0.5"/>
          <path id="Path_92" data-name="Path 92" d="M4.5,44.278s.763-1.4,1.663-1.484,4.616.5,8.245.416,5.444-.3,5.305-.076-.965,2.318-4.564,2.516c-2,.11-3.083-.546-5.681-.9C7.682,44.51,4.5,44.278,4.5,44.278Z" transform="translate(23.708 -42.786)" fill="none" stroke="#4e6454" stroke-linecap="round" stroke-width="0.5"/>
        </g>
        <g id="Right_Top_Wing" data-name="Right Top Wing" transform="translate(80.408 11.037)">
          <path id="Path_35" data-name="Path 35" d="M-45.055,50.419c-.558.03-1.341,1.189-1.341,1.189l1.11,1.338,1.532-1.076S-44.5,50.389-45.055,50.419Z" transform="translate(48.453 -45.885)" fill="#4e6454"/>
          <path id="Path_36" data-name="Path 36" d="M-42.906,48.285s.95-1.18,1.683-1.073,1.544,1.176,1.544,1.176L-41.4,50.059Z" transform="translate(46.273 -44.793)" fill="#4e6454"/>
          <path id="Path_37" data-name="Path 37" d="M-39.812,51.53s.918-1.051,1.753-.943a3.469,3.469,0,0,1,1.689,1.128l-2.088,1.43Z" transform="translate(44.897 -45.94)" fill="#4e6454"/>
          <path id="Path_38" data-name="Path 38" d="M-32.532,51.193c.034-.027.837-1.137,1.608-1.068s1.478,1.343,1.478,1.343l-1.478,1.4Z" transform="translate(41.66 -45.785)" fill="#4e6454"/>
          <path id="Path_39" data-name="Path 39" d="M-36.266,48.275s.806-1.391,1.536-1.4S-33,48.182-33,48.182l-1.675,1.485Z" transform="translate(43.32 -44.68)" fill="#4e6454"/>
          <path id="Path_40" data-name="Path 40" d="M-29.359,48.217s.741-1.311,1.432-1.361,1.7,1.361,1.7,1.361l-1.527,1.578Z" transform="translate(40.249 -44.674)" fill="#4e6454"/>
          <path id="Path_41" data-name="Path 41" d="M-25.775,51.507s.955-1.326,1.612-1.256,1.478,1.394,1.478,1.394l-1.59,1.475Z" transform="translate(38.655 -45.828)" fill="#4e6454"/>
          <path id="Path_42" data-name="Path 42" d="M-19.109,51.564s.619-1.437,1.382-1.437,1.672,1.437,1.672,1.437l-1.428,1.005Z" transform="translate(35.69 -45.786)" fill="#4e6454"/>
          <path id="Path_43" data-name="Path 43" d="M-12.865,51.163s.673-1.46,1.3-1.447,1.42,1.14,1.42,1.14L-11.358,52.1Z" transform="translate(32.914 -45.646)" fill="#4e6454"/>
          <path id="Path_44" data-name="Path 44" d="M-6.807,50.584s.552-1.164,1.065-1.284,1.187.85,1.187.85l-1.187.941Z" transform="translate(30.22 -45.501)" fill="#4e6454"/>
          <path id="Path_45" data-name="Path 45" d="M-10.7,47.558s.749-1.191,1.423-1.155,1.518,1.155,1.518,1.155l-1.605,1.25Z" transform="translate(31.952 -44.52)" fill="#4e6454"/>
          <path id="Path_46" data-name="Path 46" d="M-4.75,47.456s.824-1.336,1.432-1.382,1.371,1.114,1.371,1.114l-1.371,1.332Z" transform="translate(29.305 -44.408)" fill="#4e6454"/>
          <path id="Path_47" data-name="Path 47" d="M-2.016,44.35A3.3,3.3,0,0,1-.61,43.556a2.276,2.276,0,0,1,1.38.557L-.506,45.671Z" transform="translate(28.141 -43.55)" fill="#4e6454"/>
          <path id="Path_48" data-name="Path 48" d="M-7.7,44.515a2.732,2.732,0,0,1,1.388-.784,2.584,2.584,0,0,1,1.4.743L-6.271,46Z" transform="translate(30.618 -43.612)" fill="#4e6454"/>
          <path id="Path_49" data-name="Path 49" d="M-13.938,44.632a2.636,2.636,0,0,1,1.388-.815c.659-.026,1.588.815,1.588.815l-1.5,1.516Z" transform="translate(33.39 -43.718)" fill="#4e6454"/>
          <path id="Path_50" data-name="Path 50" d="M-16.922,47.89s.727-1.3,1.44-1.3,1.649,1.2,1.649,1.2l-1.579,1.33Z" transform="translate(34.718 -44.584)" fill="#4e6454"/>
          <path id="Path_51" data-name="Path 51" d="M-20.078,44.546s.629-.81,1.319-.794a3.426,3.426,0,0,1,1.6.794l-1.371,1.464Z" transform="translate(36.086 -43.581)" fill="#4e6454"/>
          <path id="Path_52" data-name="Path 52" d="M-26.2,44.887s.846-.866,1.458-.866,1.406.773,1.406.773l-1.284,1.547Z" transform="translate(38.845 -43.787)" fill="#4e6454"/>
          <path id="Path_53" data-name="Path 53" d="M-33,44.964a2.342,2.342,0,0,1,1.466-.8,3.359,3.359,0,0,1,1.683.743l-1.51,1.7Z" transform="translate(41.868 -43.865)" fill="#4e6454"/>
          <path id="Path_54" data-name="Path 54" d="M-22.875,48.266s.764-1.163,1.406-1.176,1.527,1.042,1.527,1.042l-1.4,1.433Z" transform="translate(37.365 -44.754)" fill="#4e6454"/>
          <path id="Path_55" data-name="Path 55" d="M-39.615,45.1s.824-.887,1.475-.887a3.735,3.735,0,0,1,1.64.794l-1.588,1.588Z" transform="translate(44.804 -43.856)" fill="#4e6454"/>
          <path id="Path_56" data-name="Path 56" d="M-46.016,45.239l1.518,1.629,1.64-1.629s-.823-.938-1.57-.938S-46.016,45.239-46.016,45.239Z" transform="translate(47.656 -43.912)" fill="#4e6454"/>
          <path id="Path_57" data-name="Path 57" d="M-48.969,47.642s.938-1.318,1.575-1.087,1.262,1.675,1.262,1.675l-1.681.887Z" transform="translate(48.969 -44.563)" fill="#4e6454"/>
        </g>
        <g id="Left_Bottom_Wing" data-name="Left Bottom Wing" transform="translate(-1 8.317)">
          <path id="Path_93-2" data-name="Path 93" d="M-44.479,64.681c.227-.1.252,2.43.252,2.43a11.934,11.934,0,0,1-2.065,1.535c-.245-.048.555-.434,1.084-1.728S-44.706,64.777-44.479,64.681Z" transform="translate(112.111 -48.108)" fill="#4e6454"/>
          <path id="Path_94-2" data-name="Path 94" d="M-40.091,64.9a4.625,4.625,0,0,0-1.7.086c-.405.225-.367.819-.833,1.785s-1.255,2.177-1.028,2.079a3.229,3.229,0,0,0,2.095-1A9.349,9.349,0,0,0-40.091,64.9Z" transform="translate(106.508 -48.17)" fill="#4e6454"/>
          <path id="Path_95-2" data-name="Path 95" d="M-34.105,65.018s-1.279-.207-1.693.2-.436,1.269-1.09,2.377-1.2,1.892-1.009,1.831a2.954,2.954,0,0,0,2.026-1.135A10.562,10.562,0,0,0-34.105,65.018Z" transform="translate(97.324 -48.205)" fill="#4e6454"/>
          <path id="Path_96-2" data-name="Path 96" d="M-28.531,65.226a5.013,5.013,0,0,0-1.6.208c-.384.219-.609,1.292-1.34,2.458a20.807,20.807,0,0,0-1.461,2.284,8.588,8.588,0,0,0,2.747-1.959A8.6,8.6,0,0,0-28.531,65.226Z" transform="translate(88.98 -48.294)" fill="#4e6454"/>
          <path id="Path_97-2" data-name="Path 97" d="M-23.33,65.152a4.223,4.223,0,0,0-1.747.343c-.432.332-.386,1.246-1.133,2.445s-1.976,2.38-1.857,2.352a4.954,4.954,0,0,0,2.7-1.521A13.023,13.023,0,0,0-23.33,65.152Z" transform="translate(81.072 -48.269)" fill="#4e6454"/>
          <path id="Path_98-2" data-name="Path 98" d="M-17.575,65.52a4.059,4.059,0,0,0-1.675.2c-.52.287-.467,1.307-1.266,2.627s-2.386,2.543-2.131,2.5a4.137,4.137,0,0,0,2.937-1.3A11.761,11.761,0,0,0-17.575,65.52Z" transform="translate(72.319 -48.39)" fill="#4e6454"/>
          <path id="Path_99-2" data-name="Path 99" d="M-11.992,65.99a4.5,4.5,0,0,0-1.973.257c-.468.35-.4,1.1-1.2,2.462s-2.168,2.911-1.994,2.858a8.813,8.813,0,0,0,3.2-2.077A9.555,9.555,0,0,0-11.992,65.99Z" transform="translate(63.682 -48.55)" fill="#4e6454"/>
          <path id="Path_100-2" data-name="Path 100" d="M-6.368,66.4s-1.3-.252-1.864.171-.456,1.223-1.293,2.585-2.326,2.7-2.116,2.641a4.413,4.413,0,0,0,2.8-1.394A15.089,15.089,0,0,0-6.368,66.4Z" transform="translate(54.996 -48.666)" fill="#4e6454"/>
          <path id="Path_101-2" data-name="Path 101" d="M-.546,65.964a4.642,4.642,0,0,0-1.965.194c-.5.323-.5,1.072-1.581,2.574s-2.591,3.1-2.418,3.122a4.578,4.578,0,0,0,3.278-1.445A14.243,14.243,0,0,0-.546,65.964Z" transform="translate(46.321 -48.536)" fill="#4e6454"/>
          <path id="Path_102-2" data-name="Path 102" d="M6.643,65.652a4.712,4.712,0,0,0-2.237,0C3.782,66,3.272,67.465,1.94,69S-1.1,71.869-.785,71.8a7.837,7.837,0,0,0,4.247-1.556A12.821,12.821,0,0,0,6.643,65.652Z" transform="translate(35.966 -48.387)" fill="#4e6454"/>
          <path id="Path_103-2" data-name="Path 103" d="M15.021,64.921a3.959,3.959,0,0,0-1.9-.235c-.655.217-1.659,1.366-3.607,3.166s-4.036,3.4-3.79,3.419a7.677,7.677,0,0,0,5.132-1.347A15.682,15.682,0,0,0,15.021,64.921Z" transform="translate(23.965 -48.09)" fill="#4e6454"/>
          <path id="Path_104-2" data-name="Path 104" d="M23.869,63.9s-1.419-.937-2.091-.678-3.963,3.27-6.143,4.749-3.764,1.7-3.379,1.845,1.7,1.479,4.595,0S23.869,63.9,23.869,63.9Z" transform="translate(11.51 -47.599)" fill="#4e6454"/>
          <path id="Path_105-2" data-name="Path 105" d="M31.689,61.666a3.5,3.5,0,0,0-2.038-.776c-.851.141-5.427,3.155-8.446,4.754s-4.436,1.708-4.178,1.808,1.631,1.753,5.268.313S31.689,61.666,31.689,61.666Z" transform="translate(1.024 -46.815)" fill="#4e6454"/>
          <path id="Path_106-2" data-name="Path 106" d="M39.937,59.12a2.8,2.8,0,0,0-1.784-.884,21.528,21.528,0,0,0-5.5,1.679c-2.309,1.054-3.385,1.878-5.774,2.739a12.7,12.7,0,0,1-5.353,1c.188.178,1.746,2.454,6.344,1.208,2.189-.593,4.377-2.071,7.133-3.531A39.95,39.95,0,0,1,39.937,59.12Z" transform="translate(-9.728 -45.917)" fill="#4e6454"/>
          <path id="Path_107-2" data-name="Path 107" d="M45.943,55.851a2.112,2.112,0,0,0-1.464-.941,33.629,33.629,0,0,0-7.19.941c-3.365.793-2.965,1.286-6.418,2.079s-5.923.677-5.7.913a7.433,7.433,0,0,0,6.047,1.885c3.839-.329,5.188-2.153,9.07-3.3S45.943,55.851,45.943,55.851Z" transform="translate(-17.761 -44.786)" fill="#4e6454"/>
          <path id="Path_108-2" data-name="Path 108" d="M50.949,52.309s-.455-1.545-1.524-1.693a40.713,40.713,0,0,0-7.837.629c-2.572.47-3.713,1.179-7.459,1.5s-6.388-.894-6.22-.648a6.113,6.113,0,0,0,5.8,3.3c4.155-.141,5.466-1.663,10.309-2.5A27.169,27.169,0,0,1,50.949,52.309Z" transform="translate(-24.29 -43.314)" fill="#4e6454"/>
          <path id="Path_109-2" data-name="Path 109" d="M53.933,48.421s-.79-1.3-1.641-1.437a56.675,56.675,0,0,0-8.748,0c-4.418.268-4.679.611-8.313.734a13.044,13.044,0,0,1-5.068-.734A10.871,10.871,0,0,0,36.776,50.1c3.95.359,5.058-1.165,9.348-1.585A46.035,46.035,0,0,1,53.933,48.421Z" transform="translate(-28.527 -42.039)" fill="#4e6454"/>
          <path id="Path_110-2" data-name="Path 110" d="M56.7,43.294s-.351-1.2-1.092-1.548-2.718-.808-6.708-.753-4.689.622-8.944,0-7.4-1.621-7.242-1.388a6.824,6.824,0,0,0,4.333,4.022c3.421,1.162,6.366-.118,10.566-.334S56.7,43.294,56.7,43.294Z" transform="translate(-32.704 -39.572)" fill="#4e6454"/>
        </g>
        <g id="Left_Middle_wings" data-name="Left Middle wings" transform="translate(23.433 10.438)">
          <path id="Path_81-2" data-name="Path 81" d="M-44.011,55.576c.293.093.278,2.97.278,2.97a5.213,5.213,0,0,1-1.033,1.629c-.64.611-1.458.959-1.527.815s.818-1.477,1.388-2.815S-44.3,55.483-44.011,55.576Z" transform="translate(87.162 -47.133)" fill="none" stroke="#4e6454" stroke-width="0.5"/>
          <path id="Path_82-2" data-name="Path 82" d="M-40.02,55.441s-1.484-.227-1.839.248a20.658,20.658,0,0,0-.972,2.434c-.581,1.32-1.588,2.64-1.414,2.784s1.3-.526,2.325-1.867A17.718,17.718,0,0,0-40.02,55.441Z" transform="translate(82.32 -47.07)" fill="none" stroke="#4e6454" stroke-width="0.5"/>
          <path id="Path_83-2" data-name="Path 83" d="M-34.239,55.634a4.471,4.471,0,0,0-1.719.092c-.373.237-.5,1.042-1.1,2.4s-2.458,3.308-1.588,2.919a6.361,6.361,0,0,0,2.774-2.183A11.814,11.814,0,0,0-34.239,55.634Z" transform="translate(73.545 -47.139)" fill="none" stroke="#4e6454" stroke-width="0.5"/>
          <path id="Path_84-2" data-name="Path 84" d="M-28.737,55.3s-1.461-.122-1.856.2-.46,1.255-1.072,2.641-2.443,3.066-1.713,2.829a4.241,4.241,0,0,0,2.705-1.77A17.686,17.686,0,0,0-28.737,55.3Z" transform="translate(65.085 -47.033)" fill="none" stroke="#4e6454" stroke-width="0.5"/>
          <path id="Path_85-2" data-name="Path 85" d="M-22.968,55.436a2.678,2.678,0,0,0-1.781.308c-.559.493-1.138,2.134-2.019,3.486s-1.824,2.114-1.562,2.187a4.939,4.939,0,0,0,3.039-1.866A15.644,15.644,0,0,0-22.968,55.436Z" transform="translate(56.444 -47.075)" fill="none" stroke="#4e6454" stroke-width="0.5"/>
          <path id="Path_86-2" data-name="Path 86" d="M-16.528,55.65s-1.231-.335-1.7.067-1.42,2.419-2.628,3.942-2.537,2.172-2.206,2.149a4.37,4.37,0,0,0,3.311-1.452A21.24,21.24,0,0,0-16.528,55.65Z" transform="translate(47.084 -47.115)" fill="none" stroke="#4e6454" stroke-width="0.5"/>
          <path id="Path_87-2" data-name="Path 87" d="M-9.251,55.012a3.2,3.2,0,0,0-2,.228A25.283,25.283,0,0,0-14.012,58.3c-1.556,1.77-4.715,2.681-4.117,2.789s3.17.778,5.076-1.113A32.358,32.358,0,0,0-9.251,55.012Z" transform="translate(37.078 -46.92)" fill="none" stroke="#4e6454" stroke-width="0.5"/>
          <path id="Path_88-2" data-name="Path 88" d="M-2.161,54.594a8.963,8.963,0,0,0-2.364,0,13.245,13.245,0,0,0-4.3,2.929c-1.868,1.949-4.745,2.49-4.212,2.8a7.069,7.069,0,0,0,6.343-1.547C-4.359,56.613-2.161,54.594-2.161,54.594Z" transform="translate(27.155 -46.769)" fill="none" stroke="#4e6454" stroke-width="0.5"/>
          <path id="Path_89-2" data-name="Path 89" d="M5.925,53.451a4.418,4.418,0,0,0-2.888-.58,19.524,19.524,0,0,0-5.572,3.172c-2.331,1.917-4.9,1.177-4.254,1.652A5.239,5.239,0,0,0-.35,57.141,23.326,23.326,0,0,1,5.925,53.451Z" transform="translate(15.62 -46.183)" fill="none" stroke="#4e6454" stroke-width="0.5"/>
          <path id="Path_90-2" data-name="Path 90" d="M12.538,50.657s-1.1-1.269-1.882-1.2a15.964,15.964,0,0,0-6.056,2.2c-2.845,1.673-6.085.662-5.836,1.255S-.148,55.677,3.266,55c1.847-.367,3.723-2.1,5.851-3.207A14.139,14.139,0,0,1,12.538,50.657Z" transform="translate(5.875 -45.053)" fill="none" stroke="#4e6454" stroke-width="0.5"/>
          <path id="Path_91-2" data-name="Path 91" d="M17.1,47.436A4.512,4.512,0,0,0,15.948,46.4c-.541-.264-5.044,1.109-8.393,1.443s-5.429-.24-4.935.265,1.33,2.321,4.935,2.227c1.875-.049,3.433-1.135,5.886-1.966A25.35,25.35,0,0,1,17.1,47.436Z" transform="translate(-0.795 -44.005)" fill="none" stroke="#4e6454" stroke-width="0.5"/>
          <path id="Path_92-2" data-name="Path 92" d="M19.721,44.278s-.763-1.4-1.663-1.484-4.616.5-8.245.416-5.444-.3-5.305-.076.965,2.318,4.564,2.516c2,.11,3.083-.546,5.681-.9C16.539,44.51,19.721,44.278,19.721,44.278Z" transform="translate(-4.5 -42.786)" fill="none" stroke="#4e6454" stroke-linecap="round" stroke-width="0.5"/>
        </g>
        <g id="Left_Top_Wing" data-name="Left Top Wing" transform="translate(39.435 11.037)">
          <path id="Path_35-2" data-name="Path 35" d="M-44.786,50.419c.691.03,1.66,1.189,1.66,1.189L-44.5,52.945l-1.9-1.076S-45.477,50.389-44.786,50.419Z" transform="translate(70.607 -45.885)" fill="#4e6454"/>
          <path id="Path_36-2" data-name="Path 36" d="M-39.679,48.285s-.95-1.18-1.683-1.073-1.544,1.176-1.544,1.176l1.718,1.671Z" transform="translate(65.222 -44.793)" fill="#4e6454"/>
          <path id="Path_37-2" data-name="Path 37" d="M-36.371,51.53s-.918-1.051-1.753-.943a3.469,3.469,0,0,0-1.689,1.128l2.088,1.43Z" transform="translate(60.197 -45.94)" fill="#4e6454"/>
          <path id="Path_38-2" data-name="Path 38" d="M-29.446,51.193c-.034-.027-.837-1.137-1.608-1.068s-1.478,1.343-1.478,1.343l1.478,1.4Z" transform="translate(49.23 -45.785)" fill="#4e6454"/>
          <path id="Path_39-2" data-name="Path 39" d="M-33,48.275s-.806-1.391-1.536-1.4-1.727,1.31-1.727,1.31l1.675,1.485Z" transform="translate(54.86 -44.68)" fill="#4e6454"/>
          <path id="Path_40-2" data-name="Path 40" d="M-26.227,48.217s-.741-1.311-1.432-1.361-1.7,1.361-1.7,1.361l1.527,1.578Z" transform="translate(44.248 -44.674)" fill="#4e6454"/>
          <path id="Path_41-2" data-name="Path 41" d="M-22.685,51.507s-.955-1.326-1.612-1.256-1.478,1.394-1.478,1.394l1.59,1.475Z" transform="translate(38.717 -45.828)" fill="#4e6454"/>
          <path id="Path_42-2" data-name="Path 42" d="M-16.055,51.564s-.619-1.437-1.382-1.437-1.672,1.437-1.672,1.437l1.428,1.005Z" transform="translate(28.385 -45.786)" fill="#4e6454"/>
          <path id="Path_43-2" data-name="Path 43" d="M-10.14,51.163s-.673-1.46-1.3-1.447-1.42,1.14-1.42,1.14l1.218,1.248Z" transform="translate(19.002 -45.646)" fill="#4e6454"/>
          <path id="Path_44-2" data-name="Path 44" d="M-4.555,50.584S-5.107,49.42-5.62,49.3s-1.187.85-1.187.85l1.187.941Z" transform="translate(10.053 -45.501)" fill="#4e6454"/>
          <path id="Path_45-2" data-name="Path 45" d="M-7.762,47.558s-.749-1.191-1.423-1.155S-10.7,47.558-10.7,47.558l1.605,1.25Z" transform="translate(15.423 -44.52)" fill="#4e6454"/>
          <path id="Path_46-2" data-name="Path 46" d="M-1.947,47.456s-.824-1.336-1.432-1.382S-4.75,47.188-4.75,47.188l1.371,1.332Z" transform="translate(6.303 -44.408)" fill="#4e6454"/>
          <path id="Path_47-2" data-name="Path 47" d="M.77,44.35a3.3,3.3,0,0,0-1.406-.794,2.276,2.276,0,0,0-1.38.557L-.74,45.671Z" transform="translate(2.016 -43.55)" fill="#4e6454"/>
          <path id="Path_48-2" data-name="Path 48" d="M-4.918,44.515a2.732,2.732,0,0,0-1.388-.784,2.584,2.584,0,0,0-1.4.743L-6.35,46Z" transform="translate(10.913 -43.612)" fill="#4e6454"/>
          <path id="Path_49-2" data-name="Path 49" d="M-10.961,44.632a2.636,2.636,0,0,0-1.388-.815c-.659-.026-1.588.815-1.588.815l1.5,1.516Z" transform="translate(20.419 -43.718)" fill="#4e6454"/>
          <path id="Path_50-2" data-name="Path 50" d="M-13.833,47.89s-.727-1.3-1.44-1.3-1.649,1.2-1.649,1.2l1.579,1.33Z" transform="translate(24.948 -44.584)" fill="#4e6454"/>
          <path id="Path_51-2" data-name="Path 51" d="M-17.163,44.546s-.629-.81-1.319-.794a3.426,3.426,0,0,0-1.6.794l1.371,1.464Z" transform="translate(30.065 -43.581)" fill="#4e6454"/>
          <path id="Path_52-2" data-name="Path 52" d="M-23.34,44.887s-.846-.866-1.458-.866-1.406.773-1.406.773l1.284,1.547Z" transform="translate(39.608 -43.787)" fill="#4e6454"/>
          <path id="Path_53-2" data-name="Path 53" d="M-29.85,44.964a2.342,2.342,0,0,0-1.466-.8A3.359,3.359,0,0,0-33,44.9l1.51,1.7Z" transform="translate(49.893 -43.865)" fill="#4e6454"/>
          <path id="Path_54-2" data-name="Path 54" d="M-19.942,48.266s-.764-1.163-1.406-1.176-1.527,1.042-1.527,1.042l1.4,1.433Z" transform="translate(34.363 -44.754)" fill="#4e6454"/>
          <path id="Path_55-2" data-name="Path 55" d="M-36.5,45.1s-.824-.887-1.475-.887a3.735,3.735,0,0,0-1.64.794l1.588,1.588Z" transform="translate(60.222 -43.856)" fill="#4e6454"/>
          <path id="Path_56-2" data-name="Path 56" d="M-42.857,45.239l-1.518,1.629-1.64-1.629s.823-.938,1.57-.938S-42.857,45.239-42.857,45.239Z" transform="translate(70.128 -43.912)" fill="#4e6454"/>
          <path id="Path_57-2" data-name="Path 57" d="M-46.132,47.642s-.938-1.318-1.575-1.087-1.262,1.675-1.262,1.675l1.735,1.258Z" transform="translate(75.042 -44.563)" fill="#4e6454"/>
        </g>
      </g>
      <g id="Sun" transform="translate(332.622 447.634)">
        <g id="Ellipse_3" data-name="Ellipse 3" fill="#635139" stroke="#635139" stroke-width="1">
          <ellipse cx="11.294" cy="10.017" rx="11.294" ry="10.017" stroke="none"/>
          <ellipse cx="11.294" cy="10.017" rx="10.794" ry="9.517" fill="none"/>
        </g>
        <g id="Ellipse_4" data-name="Ellipse 4" transform="translate(1.643 3.541)" fill="#ffa31a" stroke="#ffa31a" stroke-width="1">
          <ellipse cx="9.857" cy="8.247" rx="9.857" ry="8.247" stroke="none"/>
          <ellipse cx="9.857" cy="8.247" rx="9.357" ry="7.747" fill="none"/>
        </g>
      </g>
    </g>
    
  </g>
</svg>
